<svg xmlns="http://www.w3.org/2000/svg" viewBox="0 0 240 180" role="img" aria-label="X">
  <rect width="240" height="180" rx="18" fill="#eaf6df"/>
  <g fill="none" stroke="#1f2a20" stroke-width="3.2" stroke-linecap="round" stroke-linejoin="round">
    <path d="M45 58c20-18 47-14 75 31 28-45 55-49 75-31"/>
    <path d="M45 122c20 18 47 14 75-31 28 45 55 49 75 31"/>
    <path d="M45 58v64"/>
    <path d="M195 58v64"/>
    <path d="M75 47c16 18 30 31 45 42"/>
    <path d="M165 47c-16 18-30 31-45 42"/>
    <path d="M75 133c16-18 30-31 45-42"/>
    <path d="M165 133c-16-18-30-31-45-42"/>
  </g>
  <text x="18" y="154" fill="#1f2a20" font-family="Arial, sans-serif" font-size="22" font-weight="700">X</text>
</svg>
